<svg xmlns="http://www.w3.org/2000/svg" viewBox="0 0 1600 900" preserveAspectRatio="xMidYMid slice"><defs><filter id="blur" x="-20%" y="-40%" width="140%" height="180%"><feGaussianBlur stdDeviation="22"/></filter><linearGradient id="r1" x1="0%" y1="0%" x2="100%" y2="0%"><stop offset="0%" stop-color="#0B2DBE"/><stop offset="45%" stop-color="#1E4FF0"/><stop offset="100%" stop-color="#6E8EF5"/></linearGradient><linearGradient id="r2" x1="0%" y1="0%" x2="100%" y2="100%"><stop offset="0%" stop-color="#1541E6"/><stop offset="60%" stop-color="#2F63FF"/><stop offset="100%" stop-color="#0B2DBE"/></linearGradient><linearGradient id="r3" x1="0%" y1="0%" x2="100%" y2="0%"><stop offset="0%" stop-color="#C9D6FF" stop-opacity="0"/><stop offset="50%" stop-color="#C9D6FF" stop-opacity="0.55"/><stop offset="100%" stop-color="#C9D6FF" stop-opacity="0"/></linearGradient></defs><path d="M-200 520 C350 260, 900 760, 1800 300 L1800 480 C900 940, 350 440, -200 700 Z" fill="#06166A" transform="translate(0 26)" filter="url(#blur)" opacity=".55"/><path d="M-200 520 C350 260, 900 760, 1800 300 L1800 480 C900 940, 350 440, -200 700 Z" fill="url(#r1)"/><path d="M-200 520 C350 260, 900 760, 1800 300" fill="none" stroke="#9DB4FF" stroke-width="2.5" opacity=".7"/><path d="M-200 1100 C600 560, 1200 700, 1800 120 L1800 280 C1200 860, 600 720, -200 1260 Z" fill="#06166A" transform="translate(0 26)" filter="url(#blur)" opacity=".55"/><path d="M-200 1100 C600 560, 1200 700, 1800 120 L1800 280 C1200 860, 600 720, -200 1260 Z" fill="url(#r2)"/><path d="M-200 1100 C600 560, 1200 700, 1800 120" fill="none" stroke="#8FA9FF" stroke-width="2.5" opacity=".7"/></svg>