<svg xmlns="http://www.w3.org/2000/svg" viewBox="0 0 1600 900" preserveAspectRatio="xMidYMid slice"><defs><filter id="blur" x="-20%" y="-40%" width="140%" height="180%"><feGaussianBlur stdDeviation="22"/></filter><linearGradient id="w1" x1="0%" y1="0%" x2="100%" y2="0%"><stop offset="0%" stop-color="#0B2DBE"/><stop offset="100%" stop-color="#2F63FF"/></linearGradient><linearGradient id="w2" x1="0%" y1="0%" x2="100%" y2="0%"><stop offset="0%" stop-color="#1541E6"/><stop offset="100%" stop-color="#6E8EF5"/></linearGradient><linearGradient id="w3" x1="0%" y1="0%" x2="100%" y2="0%"><stop offset="0%" stop-color="#C9D6FF" stop-opacity="0.2"/><stop offset="100%" stop-color="#C9D6FF" stop-opacity="0.75"/></linearGradient></defs><path d="M-100 330 C450 130, 1050 530, 1700 190 L1700 212 C1050 552, 450 152, -100 352 Z" fill="url(#w3)"/><path d="M-100 470 C450 310, 1050 630, 1700 358 L1700 366 C1050 638, 450 318, -100 478 Z" fill="url(#w3)"/><path d="M-100 900 C450 780, 1050 1020, 1700 816 L1700 876 C1050 1080, 450 840, -100 960 Z" fill="url(#w2)"/><path d="M-100 900 C450 780, 1050 1020, 1700 816" fill="none" stroke="#C9D6FF" stroke-width="2.5" opacity=".7"/></svg>